<svg width="48" height="48" viewBox="0 0 48 48" fill="none" xmlns="http://www.w3.org/2000/svg">
<path fill-rule="evenodd" clip-rule="evenodd" d="M36.48 0C42.8423 2.47395e-07 48 5.15768 48 11.52V36.48C48 42.8423 42.8423 48 36.48 48H11.52C5.15768 48 0 42.8423 0 36.48V11.52C2.47402e-07 5.15768 5.15768 0 11.52 0H36.48ZM32.0644 28.6078C30.1557 28.6078 28.6078 30.1557 28.6078 32.0644C28.608 33.9729 30.1558 35.52 32.0644 35.52C33.9728 35.5198 35.5198 33.9728 35.52 32.0644C35.52 30.1558 33.9729 28.608 32.0644 28.6078ZM28.6078 12.48C24.7905 12.4801 21.6956 15.5749 21.6956 19.3922C21.6957 23.2094 24.7906 26.3043 28.6078 26.3044C32.4251 26.3044 35.5199 23.2095 35.52 19.3922C35.52 15.5748 32.4252 12.48 28.6078 12.48ZM15.9356 12.48C14.0272 12.4802 12.4802 14.0272 12.48 15.9356C12.48 17.8442 14.0271 19.392 15.9356 19.3922C17.8443 19.3922 19.3922 17.8443 19.3922 15.9356C19.392 14.0271 17.8442 12.48 15.9356 12.48Z" fill="#28472D"/>
</svg>
