<svg width="154" height="16" viewBox="0 0 154 16" fill="none" xmlns="http://www.w3.org/2000/svg">
<path d="M125.431 15.5618C124.719 15.5618 124.15 15.3483 123.723 14.9213C123.312 14.4943 123.106 13.925 123.106 13.2133V5.93058H119.88V3.86674H123.106V0H125.55V3.86674H129.037V5.93058H125.55V12.7863C125.55 13.2608 125.771 13.498 126.214 13.498H128.657V15.5618H125.431Z" fill="#162719"/>
<path d="M114.176 15.894C112.99 15.894 111.954 15.6488 111.069 15.1586C110.183 14.6525 109.487 13.9487 108.981 13.0473C108.491 12.13 108.246 11.0704 108.246 9.86849V9.58383C108.246 8.36608 108.491 7.30648 108.981 6.40503C109.471 5.48777 110.151 4.78401 111.021 4.29374C111.907 3.78767 112.927 3.53463 114.081 3.53463C115.204 3.53463 116.185 3.78767 117.023 4.29374C117.877 4.78401 118.541 5.47195 119.016 6.35759C119.49 7.24322 119.727 8.2791 119.727 9.46521V10.3904H110.737C110.768 11.4184 111.108 12.2407 111.757 12.8575C112.421 13.4585 113.243 13.759 114.224 13.759C115.141 13.759 115.829 13.5534 116.288 13.1422C116.762 12.731 117.126 12.2565 117.379 11.7188L119.395 12.7626C119.174 13.2054 118.85 13.672 118.423 14.1622C118.011 14.6525 117.466 15.0637 116.786 15.3958C116.106 15.7279 115.236 15.894 114.176 15.894ZM110.76 8.51632H117.237C117.173 7.63069 116.857 6.94274 116.288 6.45248C115.718 5.9464 114.975 5.69336 114.058 5.69336C113.141 5.69336 112.389 5.9464 111.804 6.45248C111.235 6.94274 110.887 7.63069 110.76 8.51632Z" fill="#162719"/>
<path d="M91.2985 15.5619V0.915715H95.5459L98.7471 14.0554H99.0819L102.283 0.915715H106.531V15.5619H104.334V2.50587H103.999L100.819 15.5619H97.0105L93.8302 2.50587H93.4955V15.5619H91.2985Z" fill="#162719"/>
<path d="M79.1784 15.5618C78.4668 15.5618 77.8974 15.3483 77.4704 14.9213C77.0592 14.4943 76.8536 13.925 76.8536 13.2133V5.93058H73.6274V3.86674H76.8536V0H79.2971V3.86674H82.7842V5.93058H79.2971V12.7863C79.2971 13.2608 79.5185 13.498 79.9613 13.498H82.4047V15.5618H79.1784Z" fill="#162719"/>
<path d="M68.5592 15.894C67.0726 15.894 65.839 15.5619 64.8585 14.8976C63.878 14.2334 63.277 13.2292 63.0556 11.8849L65.3329 11.3393C65.4595 11.9877 65.673 12.5017 65.9734 12.8812C66.2739 13.2608 66.6456 13.5296 67.0884 13.6878C67.547 13.8459 68.0373 13.925 68.5592 13.925C69.3341 13.925 69.9272 13.7748 70.3383 13.4743C70.7653 13.1738 70.9788 12.7863 70.9788 12.3119C70.9788 11.8374 70.7812 11.4895 70.3858 11.2681C69.9904 11.0467 69.4053 10.8648 68.6303 10.7225L67.8238 10.5802C67.033 10.4378 66.3135 10.2322 65.6651 9.96338C65.0166 9.69453 64.5027 9.32288 64.1231 8.84843C63.7435 8.37399 63.5538 7.76511 63.5538 7.02181C63.5538 5.91477 63.965 5.06077 64.7873 4.4598C65.6097 3.84302 66.7009 3.53463 68.061 3.53463C69.3736 3.53463 70.4491 3.83511 71.2872 4.43608C72.1413 5.02123 72.6948 5.81988 72.9478 6.83203L70.6705 7.47254C70.5281 6.76087 70.2276 6.2627 69.769 5.97803C69.3104 5.67755 68.741 5.52731 68.061 5.52731C67.3968 5.52731 66.8749 5.65383 66.4953 5.90686C66.1158 6.14409 65.926 6.48411 65.926 6.92692C65.926 7.40137 66.1079 7.7493 66.4716 7.97071C66.8512 8.19211 67.3572 8.35817 67.9898 8.46887L68.8201 8.61121C69.6583 8.75354 70.4253 8.95123 71.1212 9.20427C71.817 9.45731 72.3626 9.82105 72.758 10.2955C73.1692 10.7699 73.3748 11.4025 73.3748 12.1933C73.3748 13.3636 72.9399 14.2729 72.0701 14.9213C71.2003 15.5698 70.03 15.894 68.5592 15.894Z" fill="#162719"/>
<path d="M54.8653 15.7753C53.9796 15.7753 53.1889 15.5777 52.493 15.1823C51.7972 14.7869 51.2516 14.2255 50.8562 13.498C50.4608 12.7705 50.2631 11.9007 50.2631 10.8885V3.86674H52.7066V10.7225C52.7066 11.7346 52.9596 12.4859 53.4657 12.9761C53.9717 13.4506 54.6755 13.6878 55.577 13.6878C56.5733 13.6878 57.3719 13.3557 57.9729 12.6914C58.5897 12.0114 58.8981 11.0388 58.8981 9.7736V3.86674H61.3415V15.5618H58.9455V13.8064H58.566C58.3446 14.2808 57.9492 14.7316 57.3798 15.1586C56.8105 15.5698 55.9723 15.7753 54.8653 15.7753Z" fill="#162719"/>
<path d="M42.4841 15.8596C40.9953 15.8596 39.8114 15.4484 38.9323 14.6261C38.0532 13.7895 37.6137 12.6127 37.6137 11.0955V9.81942H39.9106V11.0955C39.9106 11.8895 40.1233 12.5276 40.5487 13.0097C40.9882 13.4776 41.6192 13.7115 42.4416 13.7115C43.2356 13.7115 43.824 13.4776 44.2068 13.0097C44.5897 12.5418 44.7811 11.9037 44.7811 11.0955V2.75835H42.1863V0.674053H48.737V2.75835H47.0781V11.0955C47.0781 12.641 46.674 13.825 45.8658 14.6473C45.0717 15.4555 43.9445 15.8596 42.4841 15.8596Z" fill="#162719"/>
<path d="M23.9805 15.894C22.7943 15.894 21.7585 15.6488 20.8728 15.1586C19.9872 14.6525 19.2913 13.9487 18.7853 13.0473C18.295 12.13 18.0499 11.0704 18.0499 9.86849V9.58383C18.0499 8.36608 18.295 7.30648 18.7853 6.40503C19.2755 5.48777 19.9556 4.78401 20.8254 4.29374C21.711 3.78767 22.7311 3.53463 23.8856 3.53463C25.0084 3.53463 25.989 3.78767 26.8271 4.29374C27.6811 4.78401 28.3454 5.47195 28.8198 6.35759C29.2943 7.24322 29.5315 8.2791 29.5315 9.46521V10.3904H20.5407C20.5724 11.4184 20.9124 12.2407 21.5608 12.8575C22.225 13.4585 23.0474 13.759 24.0279 13.759C24.9452 13.759 25.6331 13.5534 26.0918 13.1422C26.5662 12.731 26.9299 12.2565 27.183 11.7188L29.1994 12.7626C28.978 13.2054 28.6538 13.672 28.2268 14.1622C27.8156 14.6525 27.27 15.0637 26.5899 15.3958C25.9099 15.7279 25.0401 15.894 23.9805 15.894ZM20.5644 8.51632H27.0406C26.9774 7.63069 26.6611 6.94274 26.0918 6.45248C25.5224 5.9464 24.7791 5.69336 23.8619 5.69336C22.9446 5.69336 22.1934 5.9464 21.6082 6.45248C21.0389 6.94274 20.691 7.63069 20.5644 8.51632Z" fill="#162719"/>
<path d="M2.15508 15.5619L0 0.915715H2.25969L4.01723 14.0345H4.352L6.61169 0.915715H10.5662L12.8258 14.0345H13.1606L14.8972 0.915715H17.1569L15.0018 15.5619H11.0474L8.74585 2.25479H8.41108L6.13046 15.5619H2.15508Z" fill="#162719"/>
<path d="M153.771 4.60802C153.771 7.05506 151.787 9.03878 149.34 9.03878C146.893 9.03878 144.91 7.05506 144.91 4.60802C144.91 2.16097 146.893 0.177246 149.34 0.177246C151.787 0.177246 153.771 2.16097 153.771 4.60802Z" fill="#162719"/>
<path d="M153.771 12.7311C153.771 13.9546 152.779 14.9465 151.556 14.9465C150.332 14.9465 149.34 13.9546 149.34 12.7311C149.34 11.5076 150.332 10.5157 151.556 10.5157C152.779 10.5157 153.771 11.5076 153.771 12.7311Z" fill="#162719"/>
<path d="M143.433 2.39263C143.433 3.61615 142.441 4.60802 141.217 4.60802C139.994 4.60802 139.002 3.61615 139.002 2.39263C139.002 1.16911 139.994 0.177246 141.217 0.177246C142.441 0.177246 143.433 1.16911 143.433 2.39263Z" fill="#162719"/>
</svg>
