<svg width="24" height="24" viewBox="0 0 24 24" fill="none" xmlns="http://www.w3.org/2000/svg">
<g clip-path="url(#clip0_2059_171)">
<path d="M16.8877 13.6895C16.8877 12.1347 17.5417 10.7343 18.5859 9.74414C17.9563 9.19191 17.2249 8.85846 16.4785 8.77832C15.4676 8.6699 14.3075 9.01089 13.1914 10.127L12.8984 10.4199H11.0869L10.7949 10.127C9.18711 8.5191 7.44503 8.47499 6.09863 9.24219C4.69209 10.0438 3.57815 11.8182 3.57812 14.0986C3.57812 17.5396 5.64448 20.4988 8.60645 21.8027C9.63321 21.3132 10.7825 21.04 11.9932 21.04C13.2037 21.04 14.3523 21.3143 15.3789 21.8037C17.0502 21.0681 18.4362 19.8034 19.3271 18.2227C17.8591 17.2497 16.8877 15.585 16.8877 13.6895ZM15.5 2.5V2H15C14.1716 2 13.5 2.67158 13.5 3.5V4H14C14.8284 4 15.5 3.32842 15.5 2.5ZM18.8877 13.6895C18.8877 15.1278 19.7714 16.3623 21.0293 16.875L21.9717 17.2588L21.5713 18.1943C20.4621 20.7853 18.3331 22.8348 15.6875 23.8389L15.2529 24.0039L14.8467 23.7773C14.0027 23.3076 13.0306 23.04 11.9932 23.04C10.9557 23.04 9.9836 23.3076 9.13965 23.7773L8.7334 24.0039L8.29883 23.8389C4.37222 22.3487 1.57812 18.5512 1.57812 14.0986C1.57815 11.1797 3.01158 8.70023 5.10938 7.50488C7.16843 6.33171 9.73869 6.47514 11.8994 8.41992H12.0869C13.5075 7.14148 15.1253 6.62179 16.6924 6.79004C18.3528 6.96832 19.8316 7.90458 20.8594 9.27148L21.5293 10.1621L20.5713 10.7324C19.5611 11.3334 18.8877 12.4332 18.8877 13.6895ZM17.5 2.5C17.5 4.433 15.933 6 14 6H11.5V3.5C11.5 1.567 13.067 2.57704e-06 15 0H17.5V2.5Z" fill="white"/>
</g>
<defs>
<clipPath id="clip0_2059_171">
<rect width="24" height="24" fill="white"/>
</clipPath>
</defs>
</svg>
