<svg width="56" height="56" viewBox="0 0 56 56" fill="none" xmlns="http://www.w3.org/2000/svg">
<path d="M9.33264 37.3017C11.7659 37.3017 13.7865 37.9096 15.1959 38.5136C15.9021 38.8163 16.4636 39.1217 16.858 39.3583C17.0555 39.4768 17.2128 39.5786 17.3258 39.6552C17.3824 39.6935 17.428 39.7262 17.4625 39.7509C17.4798 39.7632 17.4948 39.7736 17.5065 39.7821C17.512 39.7862 17.5169 39.7897 17.5211 39.7929C17.5233 39.7945 17.5261 39.7964 17.528 39.7978L17.5299 39.7997L17.5319 39.8007C17.5319 39.8007 17.5141 39.826 16.3326 41.4013L17.5328 39.8017L18.3326 40.4013V46.3681H14.3326V42.5273C14.1292 42.4212 13.8904 42.3064 13.6198 42.1903C12.5792 41.7444 11.0994 41.3017 9.33264 41.3017C7.56585 41.3017 6.08612 41.7444 5.04553 42.1903C4.77487 42.3064 4.53612 42.4212 4.33264 42.5273V46.3681H0.332642V40.4013L1.13245 39.8017L2.33264 41.4013C1.15117 39.826 1.13342 39.8007 1.13342 39.8007L1.13538 39.7997L1.13733 39.7978C1.13919 39.7964 1.14195 39.7945 1.14417 39.7929C1.1484 39.7897 1.1533 39.7862 1.15881 39.7821C1.17048 39.7736 1.1855 39.7632 1.20276 39.7509C1.23732 39.7262 1.28293 39.6935 1.33948 39.6552C1.45249 39.5786 1.60977 39.4768 1.80725 39.3583C2.20166 39.1217 2.76314 38.8163 3.46936 38.5136C4.87877 37.9096 6.89943 37.3017 9.33264 37.3017Z" fill="#C2A45C"/>
<path d="M46.666 37.3017C49.0992 37.3017 51.1198 37.9096 52.5293 38.5136C53.2355 38.8163 53.797 39.1217 54.1914 39.3583C54.3888 39.4768 54.5461 39.5786 54.6591 39.6552C54.7157 39.6935 54.7613 39.7262 54.7959 39.7509C54.8131 39.7632 54.8281 39.7736 54.8398 39.7821C54.8453 39.7862 54.8502 39.7897 54.8545 39.7929C54.8567 39.7945 54.8594 39.7964 54.8613 39.7978L54.8632 39.7997L54.8652 39.8007C54.8652 39.8007 54.8474 39.826 53.666 41.4013L54.8662 39.8017L55.666 40.4013V46.3681H51.666V42.5273C51.4625 42.4212 51.2238 42.3064 50.9531 42.1903C49.9125 41.7444 48.4328 41.3017 46.666 41.3017C44.8992 41.3017 43.4195 41.7444 42.3789 42.1903C42.1082 42.3064 41.8695 42.4212 41.666 42.5273V46.3681H37.666V40.4013L38.4658 39.8017L39.666 41.4013C38.4845 39.826 38.4668 39.8007 38.4668 39.8007L38.4687 39.7997L38.4707 39.7978C38.4725 39.7964 38.4753 39.7945 38.4775 39.7929C38.4817 39.7897 38.4866 39.7862 38.4921 39.7821C38.5038 39.7736 38.5188 39.7632 38.5361 39.7509C38.5707 39.7262 38.6163 39.6935 38.6728 39.6552C38.7858 39.5786 38.9431 39.4768 39.1406 39.3583C39.535 39.1217 40.0965 38.8163 40.8027 38.5136C42.2121 37.9096 44.2328 37.3017 46.666 37.3017Z" fill="#C2A45C"/>
<path d="M11.999 27.5989C11.999 26.8918 11.7186 26.2132 11.2187 25.7131C10.7187 25.2131 10.0401 24.932 9.33297 24.9319C8.62573 24.9319 7.94732 25.213 7.44723 25.7131C6.94713 26.2132 6.66598 26.8916 6.66598 27.5989C6.66606 28.306 6.94721 28.9846 7.44723 29.4846C7.94729 29.9845 8.62588 30.2649 9.33297 30.2649C10.0401 30.2648 10.7187 29.9846 11.2187 29.4846C11.7187 28.9846 11.9989 28.306 11.999 27.5989ZM15.999 27.5989C15.9989 29.3669 15.297 31.0626 14.0468 32.3127C12.7967 33.5629 11.101 34.2648 9.33297 34.2649C7.56486 34.2649 5.86837 33.563 4.61812 32.3127C3.36806 31.0626 2.66606 29.3668 2.66598 27.5989C2.66598 25.8308 3.36788 24.1343 4.61812 22.884C5.86837 21.6338 7.56486 20.9319 9.33297 20.9319C11.1009 20.932 12.7967 21.634 14.0468 22.884C15.2971 24.1343 15.999 25.8308 15.999 27.5989Z" fill="#C2A45C"/>
<path d="M49.3323 27.5989C49.3323 26.8918 49.0519 26.2132 48.552 25.7131C48.052 25.2131 47.3734 24.932 46.6663 24.9319C45.9591 24.9319 45.2807 25.213 44.7806 25.7131C44.2805 26.2132 43.9993 26.8916 43.9993 27.5989C43.9994 28.306 44.2805 28.9846 44.7806 29.4846C45.2806 29.9845 45.9592 30.2649 46.6663 30.2649C47.3734 30.2648 48.052 29.9846 48.552 29.4846C49.0521 28.9846 49.3322 28.306 49.3323 27.5989ZM53.3323 27.5989C53.3322 29.3669 52.6303 31.0626 51.3802 32.3127C50.13 33.5629 48.4343 34.2648 46.6663 34.2649C44.8982 34.2649 43.2017 33.563 41.9515 32.3127C40.7014 31.0626 39.9994 29.3668 39.9993 27.5989C39.9993 25.8308 40.7012 24.1343 41.9515 22.884C43.2017 21.6338 44.8982 20.9319 46.6663 20.9319C48.4342 20.932 50.13 21.634 51.3802 22.884C52.6304 24.1343 53.3323 25.8308 53.3323 27.5989Z" fill="#C2A45C"/>
<path d="M27.9996 32.5986C31.8326 32.5986 35.0197 33.5567 37.2457 34.5107C38.3605 34.9885 39.2429 35.4689 39.8561 35.8368C40.1628 36.0209 40.4034 36.1771 40.5729 36.2919C40.6576 36.3493 40.7251 36.3966 40.774 36.4316C40.7984 36.4489 40.8184 36.4634 40.8336 36.4745C40.8412 36.4801 40.8478 36.4852 40.8531 36.4892C40.8556 36.491 40.858 36.4926 40.86 36.4941L40.8629 36.497L40.8649 36.498C40.8635 36.5009 40.817 36.5634 39.6656 38.0986L40.8658 36.4989L41.6656 37.0986V46.3349H37.6656V39.1894C37.189 38.9101 36.5149 38.5487 35.6696 38.1864C33.8124 37.3905 31.1661 36.5986 27.9996 36.5986C24.8329 36.5986 22.186 37.3905 20.3287 38.1864C19.4833 38.5488 18.8093 38.9101 18.3326 39.1894V46.3349H14.3326V37.0986L15.1324 36.4989L16.3326 38.0986C15.1758 36.5562 15.1343 36.5004 15.1334 36.498L15.1354 36.497L15.1383 36.4941C15.1403 36.4926 15.1426 36.491 15.1451 36.4892C15.1505 36.4852 15.157 36.4801 15.1647 36.4745C15.1799 36.4633 15.1999 36.449 15.2242 36.4316C15.2732 36.3966 15.3406 36.3493 15.4254 36.2919C15.5949 36.1771 15.8355 36.0209 16.1422 35.8368C16.7555 35.4689 17.6385 34.9885 18.7535 34.5107C20.9796 33.5567 24.1665 32.5986 27.9996 32.5986Z" fill="#C2A45C"/>
<path d="M32.2347 21.4006C32.2346 20.8447 32.1251 20.2941 31.9124 19.7805C31.6996 19.2668 31.3876 18.7997 30.9944 18.4065C30.6012 18.0133 30.1341 17.7013 29.6204 17.4885C29.1066 17.2757 28.5554 17.1663 27.9993 17.1663C27.4434 17.1663 26.8928 17.2758 26.3792 17.4885C25.8654 17.7013 25.3984 18.0133 25.0052 18.4065C24.6119 18.7997 24.3 19.2667 24.0872 19.7805C23.8745 20.2942 23.765 20.8447 23.7649 21.4006C23.7649 21.9567 23.8744 22.508 24.0872 23.0217C24.3 23.5354 24.612 24.0026 25.0052 24.3958C25.3984 24.7889 25.8655 25.1009 26.3792 25.3137C26.8928 25.5264 27.4434 25.6359 27.9993 25.636C28.5554 25.636 29.1066 25.5265 29.6204 25.3137C30.1341 25.1009 30.6012 24.789 30.9944 24.3958C31.3876 24.0025 31.6996 23.5355 31.9124 23.0217C32.1252 22.508 32.2347 21.9567 32.2347 21.4006ZM36.2347 21.4006C36.2347 22.4819 36.0215 23.553 35.6077 24.552C35.1939 25.5511 34.5872 26.4592 33.8226 27.2239C33.0579 27.9885 32.1498 28.5952 31.1507 29.009C30.1517 29.4228 29.0806 29.636 27.9993 29.636C26.918 29.6359 25.8469 29.4228 24.8479 29.009C23.849 28.5952 22.9416 27.9884 22.177 27.2239C21.4124 26.4592 20.8057 25.5511 20.3919 24.552C19.9781 23.553 19.7649 22.482 19.7649 21.4006C19.765 20.3193 19.9781 19.2483 20.3919 18.2493C20.8057 17.2503 21.4125 16.3429 22.177 15.5784C22.9416 14.8138 23.849 14.207 24.8479 13.7932C25.8469 13.3794 26.918 13.1663 27.9993 13.1663C29.0807 13.1663 30.1516 13.3794 31.1507 13.7932C32.1498 14.207 33.0579 14.8137 33.8226 15.5784C34.5871 16.3429 35.1939 17.2504 35.6077 18.2493C36.0215 19.2483 36.2346 20.3193 36.2347 21.4006Z" fill="#C2A45C"/>
</svg>
