<svg width="56" height="56" viewBox="0 0 56 56" fill="none" xmlns="http://www.w3.org/2000/svg">
<path d="M47.666 28.2576C47.666 22.9975 45.5768 17.9526 41.8574 14.2332C38.138 10.5138 33.0931 8.42456 27.833 8.42456C22.573 8.42456 17.528 10.5137 13.8086 14.2332C10.0892 17.9526 8 22.9975 8 28.2576C8 31.5426 8.81486 34.7438 10.333 37.5906L10.6445 38.1736L9.36719 46.7341L17.9922 45.489L18.5674 45.7927C21.3972 47.288 24.5739 48.0906 27.833 48.0906C33.0931 48.0906 38.138 46.0014 41.8574 42.282C45.5768 38.5626 47.666 33.5177 47.666 28.2576ZM51.666 28.2576C51.666 34.5785 49.1551 40.6405 44.6855 45.1101C40.216 49.5797 34.1539 52.0906 27.833 52.0906C24.1418 52.0906 20.5391 51.2334 17.29 49.6306L4.61816 51.4617L6.49512 38.8738C4.86932 35.6059 4 31.9765 4 28.2576C4 21.9367 6.51091 15.8746 10.9805 11.405C15.45 6.93548 21.5121 4.42456 27.833 4.42456C34.1539 4.42456 40.216 6.93549 44.6855 11.405C49.1551 15.8746 51.666 21.9367 51.666 28.2576Z" fill="#C2A45C"/>
<path d="M21.6393 25.5177V30.9972H16.1598V25.5177H21.6393Z" fill="#C2A45C"/>
<path d="M30.571 25.5177V30.9972H25.0915V25.5177H30.571Z" fill="#C2A45C"/>
<path d="M39.5026 25.5177V30.9972H34.0232V25.5177H39.5026Z" fill="#C2A45C"/>
</svg>
